<svg xmlns="http://www.w3.org/2000/svg" height="512" viewBox="0 0 511.763 511.763" width="512"><circle cx="357.525" cy="42.121" transform="rotate(-67.48 357.562 42.018)" data-original="#000000" class="active-path" data-old_color="#000000" fill="#EAA61F" r="42.121"/><path d="M412.079 97.668H302.971c-26.844 0-48.792 21.468-48.924 47.854v149.412c0 11.224 9.1 20.324 20.324 20.324s20.323-9.099 20.323-20.324V145.692c.044-3.865 4.313-7.376 8.613-7.376v349.059c0 13.469 11.096 24.388 24.566 24.388s24.388-10.919 24.388-24.388V292.436h10.53v194.939c0 13.469 10.919 24.388 24.388 24.388s24.354-10.919 24.354-24.388c-.003-9.886 0-241.073 0-241.22h-48.041c-16.46 0-30.037-12.309-32.051-28.223-2.976-12.794-16.347-75.18-16.347-75.18-.771-3.705-.052-7.49 2.024-10.655s5.261-5.333 8.968-6.102l19.115-3.973c7.646-1.587 15.168 3.34 16.758 10.99l10.08 48.506h39.38l-.053-43.203h.713c4.26 0 8.158 3.513 8.199 7.379v47.818h-56.787c-11.224 0-20.323 9.099-20.323 20.324s9.099 20.324 20.323 20.324h77.11c11.224 0 20.323-9.099 20.323-20.324v-68.212-.102c-.132-26.386-22.044-47.854-48.845-47.854z" data-original="#000000" class="active-path" data-old_color="#000000" fill="#EAA61F"/><path d="M350.276 135.441a2.243 2.243 0 00-2.648-1.736l-19.116 3.973a2.229 2.229 0 00-1.417.964 2.226 2.226 0 00-.319 1.682l11.166 53.733c5.22-6.733 13.037-11.346 21.952-12.334zM231.884 307.115h-21.701v-9.566c0-6.46-5.256-11.716-11.716-11.716h-30.798c-6.46 0-11.716 5.256-11.716 11.716v9.566h-21.7c-9.272 0-16.788 7.516-16.788 16.788v31.869h14.378c4.579 0 8.847 1.341 12.444 3.644v-25.983a5.967 5.967 0 0111.932 0v47.268h9.04c4.221 0 8.229.923 11.843 2.566v-49.834a5.967 5.967 0 0111.932 0v59.895a28.556 28.556 0 014.946 16.095v75.843a28.561 28.561 0 01-5.439 16.789h14.082v3.697a6.012 6.012 0 006.012 6.012h15.101a6.012 6.012 0 006.012-6.012v-3.697h2.136c9.272 0 16.788-7.516 16.788-16.788V323.904c.001-9.272-7.516-16.789-16.788-16.789zm-33.633 0h-30.365v-9.349h30.365zm22.605 170.774a5.967 5.967 0 01-11.932 0V333.433a5.966 5.966 0 1111.932 0z" data-original="#000000" class="active-path" data-old_color="#000000" fill="#EAA61F"/><path d="M165.259 392.396h-21.701v-13.472c0-6.46-5.256-11.716-11.716-11.716h-30.798c-6.46 0-11.716 5.256-11.716 11.716v13.472h-21.7c-9.272 0-16.788 7.754-16.788 17.026v75.843c0 9.272 7.516 16.788 16.788 16.788h2.136v3.697a6.012 6.012 0 006.012 6.012h15.101a6.012 6.012 0 006.012-6.012v-3.697h39.11v3.697a6.012 6.012 0 006.012 6.012h15.101a6.012 6.012 0 006.012-6.012v-3.697h2.136c9.272 0 16.788-7.516 16.788-16.788v-75.843c-.001-9.271-7.517-17.026-16.789-17.026zm-81.934 59.42c-6.852 0-12.406-5.554-12.406-12.406s5.554-12.406 12.406-12.406 12.406 5.554 12.406 12.406-5.554 12.406-12.406 12.406zm17.935-72.675h30.365v13.255H101.26zm23.95 82.169c-6.048 0-10.95-4.903-10.95-10.95 0-6.048 4.902-10.95 10.95-10.95s10.95 4.902 10.95 10.95-4.902 10.95-10.95 10.95zm37.913-26.806a4.905 4.905 0 01-4.905 4.905h-12.92c-3.888-7.104-11.434-11.933-20.087-11.933v-5.871a4.905 4.905 0 014.905-4.905h28.102a4.905 4.905 0 014.905 4.905z" data-original="#000000" class="active-path" data-old_color="#000000" fill="#EAA61F"/></svg>