<svg xmlns="http://www.w3.org/2000/svg" height="512" viewBox="0 0 48 57" width="512"><path d="M8 6a1 1 0 01-.625-.219l-5-4A1 1 0 013.625.219l5 4A.999.999 0 018 6zM40 6a1 1 0 01-.625-1.781l5-4a1 1 0 011.25 1.562l-5 4A1 1 0 0140 6zM45 12h-6.15a14.743 14.743 0 01-4.6 12.94A10.668 10.668 0 0031 32.77V39a4 4 0 01-3 3.86V44a1 1 0 01-2 0v-1h-4v1a1 1 0 01-2 0v-1.14A4 4 0 0117 39v-6.06a11.078 11.078 0 00-3.31-8.06 14.953 14.953 0 01-4.63-12.25c.02-.21.06-.42.09-.63H3a3.009 3.009 0 00-3 3v27a3.009 3.009 0 003 3h10c.943.006 1.829.45 2.4 1.2l7.86 10.48a1.061 1.061 0 001.51-.04L32.6 46.2A3.041 3.041 0 0135 45h10a3.009 3.009 0 003-3V15a3.009 3.009 0 00-3-3zM3 15h3a1 1 0 010 2H3a1 1 0 010-2zm5.62 15.78l-5 4A.96.96 0 013 35a.999.999 0 01-.78-.38.983.983 0 01.16-1.4l5-4a1 1 0 111.24 1.56zm37.16 3.84A.999.999 0 0145 35a.96.96 0 01-.62-.22l-5-4a1 1 0 011.24-1.56l5 4a.981.981 0 01.16 1.4zM45 17h-3a1 1 0 010-2h3a1 1 0 010 2zM32.97 4.59a12.996 12.996 0 00-21.666 6.331A12.994 12.994 0 0015.06 23.42 13.074 13.074 0 0119 32.94V34h10v-1.23a12.67 12.67 0 013.88-9.29 12.987 12.987 0 00.09-18.89zM20.38 5.92c-.04.02-3.68 1.59-4.4 5.27a1 1 0 01-1.809.37.99.99 0 01-.151-.75 9.78 9.78 0 015.6-6.73 1.001 1.001 0 011.456 1.047 1.002 1.002 0 01-.696.793zM23 31a1 1 0 01-2 0v-3a1 1 0 012 0zm0-8a1 1 0 01-2 0v-1a1 1 0 012 0zm4 8a1 1 0 01-2 0v-3a1 1 0 012 0zm0-8a1 1 0 01-2 0v-1a1 1 0 012 0z" data-original="#000000" class="active-path" data-old_color="#000000" fill="#EAA61F"/><path d="M19 36v3a2.006 2.006 0 002 2h6a2.006 2.006 0 002-2v-3z" data-original="#000000" class="active-path" data-old_color="#000000" fill="#EAA61F"/></svg>