<svg xmlns="http://www.w3.org/2000/svg" height="512" viewBox="0 0 64 64" width="512"><path d="M34.439 37.775a15.955 15.955 0 01-9.021-4.768C25.28 33.004 25.143 33 25 33c-7.512 0-11.948 1.911-13.508 3 1.56 1.089 5.996 3 13.508 3 3.854 0 7.041-.522 9.439-1.225zM23 9v5.271a16.033 16.033 0 012-2.819V9zM37 32c5.514 0 10-4.486 10-10s-4.486-10-10-10-10 4.486-10 10 4.486 10 10 10zm0-18c4.411 0 8 3.589 8 8h-2c0-3.309-2.691-6-6-6z" data-original="#000000" class="active-path" data-old_color="#000000" fill="#EAA61F"/><path d="M7 36c0 3.311 7.393 7 18 7 9.66 0 16.634-3.06 17.806-6.107a15.822 15.822 0 01-3.412.908C36.985 39.372 32.014 41 25 41c-8.844 0-14.65-2.665-15.79-4.465L8.871 36l.339-.535c1.087-1.717 6.426-4.214 14.589-4.442a15.954 15.954 0 01-1.128-1.949C12.978 29.58 7 33.015 7 36zM16.293 26.879c.238.238.707.045.707-.293V21h4.051c.042-.678.117-1.347.241-2H5V9h6v8h2V5h6v12h2V7h6v2.53a16.104 16.104 0 012-1.365V4c0-.551-.448-1-1-1H4c-.552 0-1 .449-1 1v16c0 .551.448 1 1 1h6.414z" data-original="#000000" class="active-path" data-old_color="#000000" fill="#EAA61F"/><path d="M23 22c0 7.72 6.28 14 14 14s14-6.28 14-14S44.72 8 37 8s-14 6.28-14 14zm14-12c6.617 0 12 5.383 12 12s-5.383 12-12 12-12-5.383-12-12 5.383-12 12-12zM60.207 41.699l-10.618-9.858a16.142 16.142 0 01-2.749 2.749l9.862 10.621c.467.501 1.129.79 1.816.79A2.486 2.486 0 0061 43.518c0-.687-.289-1.351-.793-1.819zM7 39.964V42c0 3.311 7.393 7 18 7s18-3.689 18-7v-2.036C39.794 42.968 33.03 45 25 45s-14.794-2.032-18-5.036zM15 7h2v10h-2z" data-original="#000000" class="active-path" data-old_color="#000000" fill="#EAA61F"/><path d="M7 45.964V48c0 3.311 7.393 7 18 7s18-3.689 18-7v-2.036C39.794 48.968 33.03 51 25 51s-14.794-2.032-18-5.036z" data-original="#000000" class="active-path" data-old_color="#000000" fill="#EAA61F"/><path d="M7 51.964V54c0 3.311 7.393 7 18 7s18-3.689 18-7v-2.036C39.794 54.968 33.03 57 25 57s-14.794-2.032-18-5.036zM7 11h2v6H7z" data-original="#000000" class="active-path" data-old_color="#000000" fill="#EAA61F"/></svg>