<svg xmlns="http://www.w3.org/2000/svg" height="512" viewBox="-61 0 512 512" width="512"><path d="M195 361c57.89 0 105-47.11 105-105s-47.11-105-105-105S90 198.11 90 256s47.11 105 105 105zm-49.395-115.605L180 279.789l64.395-64.394 21.21 21.21L180 322.211l-55.605-55.606zm0 0" data-original="#000000" class="active-path" data-old_color="#000000" fill="#EAA61F"/><path d="M195 512c3-2.516 195-52.36 195-256V60h-50.14C236.534 60 202.077 4.012 195 0c-6.7 3.797-42.074 60-144.86 60H0v196c0 203.633 192 253.484 195 256zm0-392c74.441 0 135 61.559 135 136s-60.559 135-135 135S60 330.441 60 256s60.559-136 135-136zm0 0" data-original="#000000" class="active-path" data-old_color="#000000" fill="#EAA61F"/></svg>